# xmcd CD database file
#
# Track frame offsets:
#	150
#	19032
#	35422
#	51070
#	65189
#	81687
#	97964
#	118447
#	135976
#	155733
#	170237
#	187452
#	204569
#	218889
#	235916
#	254245
#	269895
#	286172
#
# Disc length: 4102 seconds
#
# Revision: 2
# Processed by: cddbd v1.5.2PL0 Copyright (c) Steve Scherf et al.
# Submitted via: CDex 1.51
#
DISCID=2c100412
DTITLE=Various Artist - VARIOUS RC1102
DYEAR=2011
DGENRE=Country
TTITLE0=Taylor Swift - Back To December
TTITLE1=Darius Rucker - This
TTITLE2=Jerrod Neimann - What Do You Want
TTITLE3=Blake Shelton - Who Are You When I'm Not Looking
TTITLE4=Craig Campbell - Family Man
TTITLE5=James Wesley - Real
TTITLE6=Lady Antebellum - Hello World
TTITLE7=Gary Allan - Kiss Me When I'm Down
TTITLE8=Brad Paisley - This Is Country Music
TTITLE9=Eric Church - Smoke A Little Smoke (Radio Edit)
TTITLE10=Little Big Town - Kiss Goodbye (Radio Edit)
TTITLE11=Billy Currington - Let Me Down Easy
TTITLE12=Joe Nichols - Shape I'm In, The
TTITLE13=Jason Aldean and Kelly Clarkson - Don't You Wanna Stay (Radio Edit)
TTITLE14=Uncle Karcker Ft Kid Rock - Good To Be Me
TTITLE15=Clay Walker - Where Do I Go From You
TTITLE16=Sunny Sweeny - From A Table Away
TTITLE17=James Otto - Soldiers and Jesus
EXTD=Top Hits USA Recurring Country Feb 2011 #124 YEAR: 2011
EXTT0=
EXTT1=
EXTT2=
EXTT3=
EXTT4=
EXTT5=
EXTT6=
EXTT7=
EXTT8=
EXTT9=
EXTT10=
EXTT11=
EXTT12=
EXTT13=
EXTT14=
EXTT15=
EXTT16=
EXTT17=
PLAYORDER=
